<?xml version="1.0" encoding="UTF-8" standalone="no"?>
<!DOCTYPE svg PUBLIC "-//W3C//DTD SVG 1.1//EN"
 "http://www.w3.org/Graphics/SVG/1.1/DTD/svg11.dtd">
<!-- Generated by graphviz version 2.40.1 (20161225.0304)
 -->
<!-- Title: %3 Pages: 1 -->
<svg width="157pt" height="211pt"
 viewBox="0.00 0.00 157.25 211.00" xmlns="http://www.w3.org/2000/svg" xmlns:xlink="http://www.w3.org/1999/xlink">
<g id="graph0" class="graph" transform="scale(1 1) rotate(0) translate(4 207)">
<title>%3</title>
<polygon fill="#ffffff" stroke="transparent" points="-4,4 -4,-207 153.254,-207 153.254,4 -4,4"/>
<!-- fake -->
<g id="node1" class="node">
<title>fake</title>
</g>
<!-- 0 -->
<g id="node2" class="node">
<title>0</title>
<ellipse fill="none" stroke="#000000" cx="58.254" cy="-108" rx="18" ry="18"/>
<ellipse fill="none" stroke="#000000" cx="58.254" cy="-108" rx="22" ry="22"/>
<text text-anchor="middle" x="58.254" y="-103.8" font-family="Times,serif" font-size="14.00" fill="#000000">0</text>
</g>
<!-- fake&#45;&gt;0 -->
<g id="edge1" class="edge">
<title>fake&#45;&gt;0</title>
<path fill="none" stroke="#000000" stroke-width="2" d="M58.254,-166.7521C58.254,-158.8888 58.254,-149.4498 58.254,-140.4612"/>
<polygon fill="#000000" stroke="#000000" stroke-width="2" points="61.7541,-140.2376 58.254,-130.2377 54.7541,-140.2377 61.7541,-140.2376"/>
</g>
<!-- 0&#45;&gt;0 -->
<g id="edge2" class="edge">
<title>0&#45;&gt;0</title>
<path fill="none" stroke="#000000" d="M80.0606,-111.6914C89.8165,-112.043 98.254,-110.8125 98.254,-108 98.254,-106.2422 94.9581,-105.1024 90.1044,-104.5805"/>
<polygon fill="#000000" stroke="#000000" points="90.1517,-101.0806 80.0606,-104.3086 89.9622,-108.078 90.1517,-101.0806"/>
<text text-anchor="middle" x="104.9737" y="-103.8" font-family="Times,serif" font-size="14.00" fill="#000000">{}</text>
</g>
<!-- 0&#45;&gt;0 -->
<g id="edge5" class="edge">
<title>0&#45;&gt;0</title>
<path fill="none" stroke="#000000" d="M79.3682,-114.3094C97.3496,-117.0953 116.254,-114.9922 116.254,-108 116.254,-102.3188 103.7741,-99.8652 89.4494,-100.6392"/>
<polygon fill="#000000" stroke="#000000" points="88.9512,-97.1721 79.3682,-101.6906 89.6774,-104.1343 88.9512,-97.1721"/>
<text text-anchor="middle" x="126.4737" y="-103.8" font-family="Times,serif" font-size="14.00" fill="#000000">{b}</text>
</g>
<!-- 1 -->
<g id="node3" class="node">
<title>1</title>
<ellipse fill="none" stroke="#000000" cx="58.254" cy="-18" rx="27" ry="18"/>
<text text-anchor="middle" x="58.254" y="-13.8" font-family="Times,serif" font-size="14.00" fill="#000000">1</text>
</g>
<!-- 0&#45;&gt;1 -->
<g id="edge3" class="edge">
<title>0&#45;&gt;1</title>
<path fill="none" stroke="#000000" d="M37.7686,-99.6045C17.8562,-90.101 -7.9519,-73.3939 2.6007,-54 7.7155,-44.5997 16.4589,-37.2782 25.5194,-31.7658"/>
<polygon fill="#000000" stroke="#000000" points="27.4509,-34.6995 34.5629,-26.8465 24.106,-28.5504 27.4509,-34.6995"/>
<text text-anchor="middle" x="20.0806" y="-56.8" font-family="Times,serif" font-size="14.00" fill="#000000">{a, b}</text>
</g>
<!-- 0&#45;&gt;1 -->
<g id="edge4" class="edge">
<title>0&#45;&gt;1</title>
<path fill="none" stroke="#000000" d="M58.254,-85.7528C58.254,-73.7967 58.254,-58.9326 58.254,-46.1757"/>
<polygon fill="#000000" stroke="#000000" points="61.7541,-46.0657 58.254,-36.0657 54.7541,-46.0658 61.7541,-46.0657"/>
<text text-anchor="middle" x="68.0806" y="-56.8" font-family="Times,serif" font-size="14.00" fill="#000000">{a}</text>
</g>
<!-- 1&#45;&gt;0 -->
<g id="edge6" class="edge">
<title>1&#45;&gt;0</title>
<path fill="none" stroke="#000000" d="M70.263,-34.3898C73.8922,-40.2748 77.4034,-47.1548 79.254,-54 81.6573,-62.8895 79.6562,-72.3268 76.0934,-80.7832"/>
<polygon fill="#000000" stroke="#000000" points="72.9098,-79.3241 71.559,-89.8325 79.1681,-82.4601 72.9098,-79.3241"/>
<text text-anchor="middle" x="86.9737" y="-56.8" font-family="Times,serif" font-size="14.00" fill="#000000">{}</text>
</g>
<!-- 1&#45;&gt;1 -->
<g id="edge7" class="edge">
<title>1&#45;&gt;1</title>
<path fill="none" stroke="#000000" d="M82.7865,-25.752C93.7618,-26.4902 103.254,-23.9063 103.254,-18 103.254,-14.0317 98.9691,-11.5632 92.8283,-10.5944"/>
<polygon fill="#000000" stroke="#000000" points="92.9012,-7.0949 82.7865,-10.248 92.6598,-14.0908 92.9012,-7.0949"/>
<text text-anchor="middle" x="113.0806" y="-13.8" font-family="Times,serif" font-size="14.00" fill="#000000">{a}</text>
</g>
</g>
</svg>
